Coordinates
version=1
nRows=24
nColumns=24
inDegrees=yes

Units are S.I. units (second, meters, Newtons, ...)
Angles are in degrees.

endheader
time	pelvis_tilt	pelvis_list	pelvis_rotation	pelvis_tx	pelvis_ty	pelvis_tz	hip_flexion_r	hip_adduction_r	hip_rotation_r	knee_angle_r	ankle_angle_r	subtalar_angle_r	mtp_angle_r	hip_flexion_l	hip_adduction_l	hip_rotation_l	knee_angle_l	ankle_angle_l	subtalar_angle_l	mtp_angle_l	lumbar_extension	lumbar_bending	lumbar_rotation
      0.78766667	      7.49859413	     -3.96088417	      1.68814273	     -0.34779692	      1.01624010	      0.30903663	      0.79344705	      9.84224418	     -1.10678051	    -12.47197013	      1.89588509	    -17.24290692	     -3.79089276	     10.69266208	     -5.12056336	      0.59715894	    -67.84531200	     -6.37655151	     -8.57492325	      3.07654740	     -8.47635739	      7.74423756	      1.43286713
      0.79183333	      7.55273239	     -3.84489654	      1.53904874	     -0.34272070	      1.01697625	      0.30940051	      0.22487322	      9.72824499	     -0.97982879	    -12.15859961	      2.03905087	    -17.02614621	     -3.76691938	     11.19643349	     -4.99596450	      0.54650935	    -67.57470239	     -5.80153069	     -8.78553574	      2.92983547	     -8.61884379	      7.59157828	      1.70080430
      0.79600000	      7.58235014	     -3.72756578	      1.38446573	     -0.33764429	      1.01765385	      0.30975340	     -0.30949821	      9.60562790	     -0.87378720	    -11.85965938	      2.17704715	    -16.80409642	     -3.74624990	     11.71300754	     -4.86964145	      0.48662605	    -67.25474299	     -5.22269741	     -8.98743560	      2.76700675	     -8.72252394	      7.44013319	      1.89360214
      0.80016667	      7.60635322	     -3.62334613	      1.22613783	     -0.33257588	      1.01828104	      0.31010780	     -0.84007278	      9.49439213	     -0.76314834	    -11.55379593	      2.31393164	    -16.58850841	     -3.73175672	     12.22299618	     -4.76065725	      0.42180411	    -66.88905935	     -4.63776828	     -9.15158980	      2.61732019	     -8.82187206	      7.30470387	      2.06525322
      0.80433333	      7.62994532	     -3.50791122	      1.04803790	     -0.32749717	      1.01888838	      0.31047549	     -1.36999405	      9.36548573	     -0.64756295	    -11.25182463	      2.45781196	    -16.36482095	     -3.72300756	     12.70648863	     -4.64437482	      0.32960129	    -66.45716211	     -4.07208104	     -9.29753655	      2.49364151	     -8.90908574	      7.16260767	      2.23877374
      0.80850000	      7.64080529	     -3.40505812	      0.87111935	     -0.32243568	      1.01941920	      0.31083835	     -1.88124755	      9.24628241	     -0.54187918	    -10.95508375	      2.60432316	    -16.11335480	     -3.71760228	     13.19555491	     -4.54314371	      0.23844726	    -65.98766060	     -3.51280650	     -9.40418317	      2.36372746	     -8.99539418	      7.02460263	      2.43294114
      0.81266667	      7.66585955	     -3.30464257	      0.68650765	     -0.31736636	      1.01995966	      0.31119566	     -2.41437356	      9.12536551	     -0.42655807	    -10.64592488	      2.74294870	    -15.87294733	     -3.71643625	     13.64503580	     -4.44676358	      0.13641138	    -65.45566798	     -2.97080119	     -9.49608024	      2.25342473	     -9.09333485	      6.89783145	      2.60491859
      0.81683333	      7.68898808	     -3.21488505	      0.49984265	     -0.31231490	      1.02043699	      0.31155160	     -2.94283092	      9.01191708	     -0.31785831	    -10.33668209	      2.88589214	    -15.61488039	     -3.71864859	     14.08599856	     -4.36591329	      0.02735124	    -64.88493187	     -2.44567525	     -9.55101111	      2.14050178	     -9.19296979	      6.77522194	      2.79550479
      0.82100000	      7.68750494	     -3.13062221	      0.31105119	     -0.30726484	      1.02083153	      0.31191139	     -3.43783171	      8.90069849	     -0.21733401	    -10.03880803	      3.03217172	    -15.33762222	     -3.72500674	     14.54070005	     -4.29270705	     -0.08334045	    -64.27270718	     -1.93608261	     -9.58115327	      2.01493844	     -9.26634614	      6.65623126	      2.99253952
      0.82516667	      7.69810102	     -3.05002841	      0.12152821	     -0.30221303	      1.02121578	      0.31225528	     -3.94955100	      8.78873931	     -0.11910779	     -9.73127043	      3.17035625	    -15.06736655	     -3.73436485	     14.96147149	     -4.22356079	     -0.19843674	    -63.60613204	     -1.45880223	     -9.60572748	      1.88944305	     -9.34871905	      6.54572950	      3.17019462
      0.82933333	      7.69796620	     -2.96860580	     -0.09312225	     -0.29716846	      1.02155934	      0.31262329	     -4.44250429	      8.67168717	      0.01102723	     -9.43746241	      3.29149817	    -14.83966030	     -3.73875393	     15.36943042	     -4.16095618	     -0.34441170	    -62.88577387	     -1.00098247	     -9.62819807	      1.82000579	     -9.41686129	      6.43721189	      3.28656723
      0.83350000	      7.73424902	     -2.90216091	     -0.28304409	     -0.29211709	      1.02189553	      0.31294443	     -4.98628874	      8.56807424	      0.11831577	     -9.11718215	      3.41947874	    -14.57478650	     -3.74456308	     15.72604634	     -4.11032038	     -0.46966449	    -62.12544042	     -0.56608379	     -9.60133074	      1.74418364	     -9.52922829	      6.34447157	      3.45281406
      0.83766667	      7.75197371	     -2.84433355	     -0.44874279	     -0.28706457	      1.02215520	      0.31323867	     -5.51048763	      8.47151023	      0.18384173	     -8.78721239	      3.55967875	    -14.25941744	     -3.75838942	     16.09549090	     -4.06249656	     -0.56603637	    -61.32968149	     -0.18112144	     -9.55327422	      1.61662339	     -9.62190722	      6.25649947	      3.68007441
      0.84183333	      7.73837046	     -2.77814317	     -0.65644911	     -0.28203747	      1.02233635	      0.31355796	     -5.97991413	      8.35996873	      0.31081983	     -8.50027283	      3.67628646	    -14.02391456	     -3.76351673	     16.47109248	     -4.01147378	     -0.70442042	    -60.48083203	      0.19274524	     -9.53336404	      1.54625838	     -9.67875355	      6.17519423	      3.77900912
      0.84600000	      7.78369798	     -2.72614708	     -0.82092695	     -0.27696762	      1.02256641	      0.31383013	     -6.53809915	      8.26312203	      0.37680371	     -8.15880431	      3.80731066	    -13.72676553	     -3.77475549	     16.76823991	     -3.97289475	     -0.81745780	    -59.58857101	      0.52458654	     -9.47476578	      1.43114706	     -9.79565134	      6.08325447	      3.96948355
      0.85016667	      7.78478883	     -2.66958312	     -1.01041982	     -0.27191351	      1.02269709	      0.31410605	     -7.02849937	      8.15556283	      0.48051058	     -7.85663187	      3.92361484	    -13.46105716	     -3.78340997	     17.08963622	     -3.92827086	     -0.94461791	    -58.64723675	      0.83441108	     -9.42753309	      1.32884605	     -9.86582190	      6.01313725	      4.10111738
      0.85433333	      7.80914681	     -2.62441665	     -1.17039606	     -0.26685278	      1.02281256	      0.31434875	     -7.55312498	      8.06202106	      0.55498596	     -7.53140528	      4.04575571	    -13.19263412	     -3.79399177	     17.37390078	     -3.89000349	     -1.04960153	    -57.66927572	      1.10954305	     -9.37296431	      1.20772769	     -9.95909022	      5.94416901	      4.25149795
      0.85850000	      7.80951136	     -2.56549808	     -1.35115479	     -0.26179589	      1.02287140	      0.31458770	     -8.03631361	      7.94794746	      0.66635605	     -7.23809430	      4.15713499	    -12.95508659	     -3.79975629	     17.65502228	     -3.83440893	     -1.16753588	    -56.63464309	      1.35838812	     -9.32851293	      1.11747972	    -10.02758954	      5.87127279	      4.35119824
      0.86266667	      7.81109374	     -2.52468679	     -1.50728952	     -0.25673230	      1.02287320	      0.31479626	     -8.52798230	      7.85609065	      0.76861925	     -6.92648657	      4.27330066	    -12.72680971	     -3.80346341	     17.92494444	     -3.79357011	     -1.26431808	    -55.57187365	      1.58827806	     -9.27684307	      1.03726863	    -10.09518189	      5.81527697	      4.45320913
      0.86683333	      7.84691710	     -2.49814919	     -1.63170882	     -0.25164334	      1.02286504	      0.31496940	     -9.06469412	      7.77898313	      0.80491553	     -6.59502687	      4.39686233	    -12.45903178	     -3.81479460	     18.14614523	     -3.76671012	     -1.34971051	    -54.47943375	      1.78339553	     -9.22357943	      0.87962612	    -10.20057546	      5.77381373	      4.62283505
      0.87100000	      7.82215155	     -2.44721236	     -1.80181864	     -0.24655711	      1.02277488	      0.31517649	     -9.51085101	      7.67045307	      0.91584818	     -6.31764306	      4.51139833	    -12.26210435	     -3.81862333	     18.39625661	     -3.72166576	     -1.48058000	    -53.32243158	      1.95408264	     -9.18473850	      0.78660237	    -10.23143356	      5.70140675	      4.68447804
      0.87516667	      7.84113188	     -2.41077848	     -1.92573726	     -0.24144156	      1.02268014	      0.31534103	    -10.02519204	      7.58177201	      0.97222590	     -5.99391851	      4.63415754	    -12.04560635	     -3.82513915	     18.58922737	     -3.68340994	     -1.58004611	    -52.13830223	      2.10263157	     -9.15830520	      0.65888183	    -10.30653984	      5.64794751	      4.79567123
      0.87933333	      7.83280757	     -2.38621460	     -2.05001879	     -0.23633973	      1.02250132	      0.31548449	    -10.49573444	      7.50591314	      1.04405065	     -5.69821111	      4.75496024	    -11.85486425	     -3.83108040	     18.79599502	     -3.65541501	     -1.67641372	    -50.92302746	      2.23568692	     -9.12827385	      0.53007114	    -10.35478786	      5.61412572	      4.88073254
      0.88350000	      7.79005683	     -2.35697081	     -2.18092334	     -0.23124544	      1.02224751	      0.31562710	    -10.91307216	      7.42534834	      1.14217870	     -5.43363630	      4.87512552	    -11.69848014	     -3.83340741	     19.01678730	     -3.61888270	     -1.76954395	    -49.66379372	      2.35234663	     -9.10410654	      0.44133015	    -10.36445548	      5.56909813	      4.93372774
